<?xml version="1.0" encoding="UTF-8" standalone="no"?>
<!DOCTYPE svg PUBLIC "-//W3C//DTD SVG 1.1//EN" "http://www.w3.org/Graphics/SVG/1.1/DTD/svg11.dtd">
<svg width="100%" height="100%" viewBox="0 0 157 235" version="1.1" xmlns="http://www.w3.org/2000/svg" xmlns:xlink="http://www.w3.org/1999/xlink" xml:space="preserve" xmlns:serif="http://www.serif.com/" style="fill-rule:evenodd;clip-rule:evenodd;stroke-linecap:round;stroke-linejoin:round;stroke-miterlimit:1.5;">
    <g transform="matrix(3.125,0,0,3.125,0,0)">
        <path d="M50,2.5C50,1.12 48.88,0 47.5,0L2.5,0C1.12,0 0,1.12 0,2.5L0,72.5C0,73.88 1.12,75 2.5,75L47.5,75C48.88,75 50,73.88 50,72.5L50,2.5Z" style="fill:none;stroke:#263238;stroke-width:1.33px;"/>
        <g transform="matrix(0.98,0,0,0.6,0.5,0.547133)">
            <rect x="0" y="0" width="50" height="75" style="fill:#263238;"/>
        </g>
        <g transform="matrix(1.0439,0,0,1.0575,-0.963649,-3.41097)">
            <g transform="matrix(20.4362,0,0,20.1733,6.4792,67.392)">
                <path d="M0.09,0L0.09,-0.698L0.344,-0.698C0.409,-0.698 0.458,-0.68 0.492,-0.645C0.526,-0.61 0.543,-0.56 0.543,-0.497C0.543,-0.434 0.526,-0.384 0.492,-0.349C0.458,-0.314 0.409,-0.296 0.344,-0.296L0.174,-0.296L0.174,0L0.09,0ZM0.174,-0.369L0.342,-0.369C0.377,-0.369 0.405,-0.378 0.425,-0.396C0.444,-0.413 0.454,-0.438 0.454,-0.471L0.454,-0.523C0.454,-0.556 0.444,-0.581 0.425,-0.599C0.405,-0.616 0.377,-0.625 0.342,-0.625L0.174,-0.625L0.174,-0.369Z" style="fill:#263238;fill-rule:nonzero;"/>
            </g>
            <g transform="matrix(20.4362,0,0,20.1733,18.7409,67.392)">
                <path d="M0.095,-0.698L0.29,-0.698C0.375,-0.698 0.439,-0.669 0.481,-0.61C0.523,-0.551 0.544,-0.464 0.544,-0.349C0.544,-0.234 0.523,-0.147 0.481,-0.088C0.439,-0.029 0.375,0 0.29,0L0.095,0L0.095,-0.698ZM0.286,-0.073C0.342,-0.073 0.384,-0.092 0.412,-0.131C0.441,-0.17 0.455,-0.224 0.455,-0.295L0.455,-0.403C0.455,-0.474 0.441,-0.528 0.412,-0.567C0.384,-0.606 0.342,-0.625 0.286,-0.625L0.179,-0.625L0.179,-0.073L0.286,-0.073Z" style="fill:#263238;fill-rule:nonzero;"/>
            </g>
            <g transform="matrix(20.4362,0,0,20.1733,31.0026,67.392)">
                <path d="M0.09,0L0.09,-0.698L0.53,-0.698L0.53,-0.625L0.174,-0.625L0.174,-0.39L0.5,-0.39L0.5,-0.317L0.174,-0.317L0.174,0L0.09,0Z" style="fill:#263238;fill-rule:nonzero;"/>
            </g>
        </g>
        <g transform="matrix(0.5,0,0,0.466667,12.5,5.54713)">
            <path d="M50,0L50,75L0,75L0,12.818L10.398,0L50,0Z" style="fill:none;stroke:#fefffe;stroke-width:2.76px;"/>
        </g>
        <g transform="matrix(0.5,0,0,0.466667,13.0506,5.54713)">
            <path d="M10.123,0L10.398,12.818L0,12.818L10.123,0Z" style="fill:none;stroke:#fefffe;stroke-width:2.76px;"/>
        </g>
        <g transform="matrix(0.971667,0.236352,-0.236352,0.971667,12.2242,-5.08863)">
            <path d="M8.368,8.91L4.731,15.951L8.368,8.91Z" style="fill:#263238;stroke:#fefffe;stroke-width:1.33px;"/>
        </g>
    </g>
</svg>
